<?xml version="1.0" encoding="utf-8"?>
<!-- Generator: Adobe Illustrator 25.2.0, SVG Export Plug-In . SVG Version: 6.00 Build 0)  -->
<svg version="1.1" id="Layer_1" xmlns="http://www.w3.org/2000/svg" xmlns:xlink="http://www.w3.org/1999/xlink" x="0px" y="0px"
	 viewBox="0 0 456 477" style="enable-background:new 0 0 456 477;" xml:space="preserve">
<style type="text/css">
	.st0{display:none;}
	.st1{display:inline;fill:#333333;}
	.st2{fill:#333333;}
</style>
<g>
	<g class="st0">
		<path class="st1" d="M319,86.2c-30.3-28.3-70-42.3-111.6-39.4c-72.3,5.1-131.2,63.4-137,135.6c-4.9,62.1,29.8,121.2,86.4,146.9
			c3.1,1.4,5.1,4.5,5.1,7.8v5.4c0,8.6,5.2,16,12.6,19.2c-2.9,3.1-4.7,7.2-4.7,11.7c0,4.2,1.6,8.1,4.2,11.1c-2.6,3-4.2,6.9-4.2,11.1
			c0,8.9,6.8,16.2,15.5,17.1l5.4,9.9c5.4,10,15.8,16.2,27.2,16.2c11.4,0,21.8-6.2,27.2-16.2l5.4-9.9c8.7-0.9,15.5-8.2,15.5-17.1
			c0-4.2-1.6-8.1-4.2-11.1c2.6-3,4.2-6.9,4.2-11.1c0-4.5-1.8-8.6-4.7-11.7c7.4-3.2,12.6-10.6,12.6-19.2v-5.4c0-3.3,2-6.4,5.1-7.8
			c52.8-24,86.8-76.9,86.8-134.8C366.1,153.6,348.9,114.2,319,86.2z M187.2,400.5c-2.7,0-4.9-2.2-4.9-4.9c0-2.7,2.2-4.9,4.9-4.9
			h61.7c2.7,0,4.9,2.2,4.9,4.9c0,2.7-2.2,4.9-4.9,4.9H187.2z M248.9,378.3h-61.7c-2.7,0-4.9-2.2-4.9-4.9c0-2.7,2.2-4.9,4.9-4.9h61.7
			c2.7,0,4.9,2.2,4.9,4.9C253.8,376.1,251.6,378.3,248.9,378.3z M201.7,416.7h32.7c-3.1,5.8-9.3,9.7-16.3,9.7
			C211,426.5,204.9,422.5,201.7,416.7z M274.1,318.1c-7.5,3.4-12.4,10.9-12.4,19.1v5.4c0,4.7-3.8,8.5-8.5,8.5h-70.4
			c-4.7,0-8.5-3.8-8.5-8.5v-5.4c0-8.2-4.9-15.6-12.4-19c-51.9-23.6-83.7-77.7-79.2-134.7C88,117.2,142,63.8,208.3,59.2
			c3.3-0.2,6.6-0.3,9.9-0.3c34.5,0,67,12.7,92.4,36.4c27.4,25.6,43.2,61.8,43.2,99.3C353.7,247.6,322.5,296.1,274.1,318.1z"/>
		<path class="st1" d="M218,67.7c-3.4,0-6.2,2.8-6.2,6.2c0,3.4,2.8,6.2,6.2,6.2c63.1,0,114.5,51.4,114.5,114.5
			c0,3.4,2.8,6.2,6.2,6.2c3.4,0,6.2-2.8,6.2-6.2C344.9,124.6,288,67.7,218,67.7z"/>
	</g>
	<g class="st0">
		<path class="st1" d="M270.5,217.9c-16.3-14.6-37.4-21.3-59.4-18.9c-34.8,3.8-62.9,31.9-66.9,66.6c-2.9,25.6,7,50.7,26.6,67.2
			c1.6,1.4,2.6,3.3,2.6,5.4v12.4c0,7.1,4.3,13.2,10.4,15.9c-2.4,2.6-3.9,5.9-3.9,9.7c0,3.5,1.3,6.7,3.4,9.2
			c-2.1,2.5-3.4,5.7-3.4,9.2c0,7.4,5.7,13.4,12.9,14.1l4.5,8.2c4.5,8.3,13.1,13.4,22.5,13.4c9.4,0,18-5.1,22.5-13.4l4.5-8.2
			c7.2-0.7,12.9-6.7,12.9-14.1c0-3.5-1.3-6.7-3.4-9.2c2.1-2.5,3.4-5.7,3.4-9.2c0-3.7-1.5-7.1-3.9-9.7c6.1-2.7,10.4-8.8,10.4-15.9
			v-12.4c0-2.1,0.9-4,2.5-5.4c17.3-14.5,27.2-35.7,27.2-58.2C295.8,253,286.6,232.4,270.5,217.9z M194.2,398.6c-2.2,0-4-1.8-4-4
			c0-2.2,1.8-4,4-4h51.1c2.2,0,4,1.8,4,4c0,2.2-1.8,4-4,4H194.2z M245.3,380.2h-51.1c-2.2,0-4-1.8-4-4s1.8-4,4-4h51.1
			c2.2,0,4,1.8,4,4S247.5,380.2,245.3,380.2z M206.2,412.1h27c-2.6,4.8-7.7,8.1-13.5,8.1S208.8,416.8,206.2,412.1z M262.1,325
			c-3.9,3.3-6.2,8.1-6.2,13.2v12.4c0,3.9-3.2,7.1-7.1,7.1h-58.2c-3.9,0-7.1-3.2-7.1-7.1v-12.4c0-5.1-2.3-9.9-6.2-13.2
			c-17-14.3-25.6-36-23-58.2c3.5-30.1,27.8-54.3,57.9-57.6c2.6-0.3,5.1-0.4,7.6-0.4c16.3,0,31.6,5.8,43.8,16.8
			c13.9,12.5,21.9,30.4,21.9,49.1C285.6,294.1,277,312.5,262.1,325z"/>
		<path class="st1" d="M219.8,216.1c-2.8,0-5.1,2.3-5.1,5.1c0,2.8,2.3,5.1,5.1,5.1c26.6,0,48.3,21.7,48.3,48.3
			c0,2.8,2.3,5.1,5.1,5.1c2.8,0,5.1-2.3,5.1-5.1C278.3,242.3,252,216.1,219.8,216.1z"/>
	</g>
	<g class="st0">
		<path class="st1" d="M219.8,82.2c-52.4,0-95,60.3-95,134.3c0,47.7,17.3,90.8,46.2,115.3c1.6,1.3,2.5,3.3,2.5,5.3v13.7
			c0,7.1,4.3,13.2,10.4,15.9c-2.4,2.6-3.9,5.9-3.9,9.7c0,3.5,1.3,6.7,3.4,9.2c-2.1,2.5-3.4,5.7-3.4,9.2c0,7.4,5.7,13.4,12.8,14.1
			l4.5,8.2c4.5,8.3,13.1,13.4,22.5,13.4c9.4,0,18-5.1,22.5-13.4l4.5-8.2c7.2-0.7,12.8-6.7,12.8-14.1c0-3.5-1.3-6.7-3.4-9.2
			c2.1-2.5,3.4-5.7,3.4-9.2c0-3.7-1.5-7.1-3.9-9.7c6.1-2.7,10.4-8.8,10.4-15.9v-13.7c0-2.1,0.9-4,2.5-5.3
			c28.9-24.5,46.2-67.6,46.2-115.3C314.8,142.5,272.2,82.2,219.8,82.2z M194.2,398.8c-2.2,0-4-1.8-4-4c0-2.2,1.8-4,4-4h51.1
			c2.2,0,4,1.8,4,4c0,2.2-1.8,4-4,4H194.2z M245.3,380.5h-51.1c-2.2,0-4-1.8-4-4c0-2.2,1.8-4,4-4h51.1c2.2,0,4,1.8,4,4
			C249.4,378.6,247.5,380.5,245.3,380.5z M206.2,412.3h27c-2.6,4.8-7.7,8.1-13.5,8.1C213.9,420.3,208.8,417.1,206.2,412.3z
			 M262,324.1c-3.9,3.3-6.1,8.1-6.1,13.1v13.7c0,3.9-3.2,7.1-7.1,7.1h-58.2c-3.9,0-7.1-3.2-7.1-7.1v-13.7c0-5.1-2.2-9.9-6.1-13.1
			c-26.3-22.2-42.6-63.4-42.6-107.5c0-68.4,38-124.1,84.8-124.1c46.8,0,84.8,55.7,84.8,124.1C304.6,260.7,288.3,301.8,262,324.1z"/>
		<path class="st1" d="M219.8,99.8c-2.8,0-5.1,2.3-5.1,5.1c0,2.8,2.3,5.1,5.1,5.1c36.5,0,67.3,48.8,67.3,106.6
			c0,2.8,2.3,5.1,5.1,5.1c2.8,0,5.1-2.3,5.1-5.1C297.3,153.3,261.8,99.8,219.8,99.8z"/>
	</g>
	<g>
		<path class="st2" d="M217,22C121,22,43,69.9,43,128.9c0,28.6,31.7,48.4,59.7,65.8c16.1,10,31.3,19.5,37.6,28.6
			c4.9,7.1,13,30.1,11.5,103.5c0,1.8-0.1,3.2-0.1,3.9c0,10,6,18.5,14.7,22.3c-3.3,3.6-5.4,8.3-5.4,13.6c0,4.9,1.9,9.4,4.8,12.9
			c-3,3.5-4.8,8-4.8,12.9c0,10.4,7.9,18.8,18.1,19.9l6.3,11.6c6.3,11.6,18.4,18.8,31.6,18.8c13.2,0,25.3-7.2,31.6-18.8l6.3-11.6
			c10.1-1,18-9.5,18-19.9c0-4.9-1.9-9.4-4.8-12.9c3-3.5,4.8-8,4.8-12.9c0-5.3-2.1-10-5.4-13.6c8.6-3.7,14.7-12.3,14.7-22.3
			c0-0.7,0-2-0.1-3.9c-1.5-73.5,6.5-96.4,11.5-103.5c6.3-9.2,21.5-18.6,37.6-28.6c28-17.4,59.7-37.1,59.7-65.8
			C390.9,69.9,312.9,22,217,22z M181.1,398.1c-3.1,0-5.7-2.5-5.7-5.7s2.5-5.7,5.7-5.7h71.8c3.1,0,5.7,2.5,5.7,5.7s-2.5,5.7-5.7,5.7
			H181.1z M252.8,372.2h-71.8c-3.1,0-5.7-2.5-5.7-5.7s2.5-5.7,5.7-5.7h71.8c3.1,0,5.7,2.5,5.7,5.7S256,372.2,252.8,372.2z
			 M198,416.9h38c-3.7,6.7-10.8,11.3-19,11.3C208.8,428.2,201.6,423.7,198,416.9z M323.6,182.4c-17.4,10.8-33.8,21-41.9,32.7
			c-10.7,15.4-15.2,52.1-14,112c0,1.7,0.1,2.9,0.1,3.6c0,5.5-4.4,9.9-9.9,9.9h-81.8c-5.5,0-9.9-4.4-9.9-9.9c0-0.7,0-1.9,0.1-3.6
			c1.2-59.9-3.4-96.6-14-112c-8-11.6-24.5-21.8-41.9-32.7c-24.8-15.4-53-32.9-53-53.6c0-51,71.6-92.5,159.6-92.5
			s159.6,41.5,159.6,92.5C376.6,149.5,348.4,167,323.6,182.4z"/>
		<path class="st2" d="M217,46.6c-4,0-7.2,3.2-7.2,7.2c0,4,3.2,7.2,7.2,7.2c83.6,0,135,39.5,135,67.9c0,4,3.2,7.2,7.2,7.2
			c4,0,7.2-3.2,7.2-7.2C366.3,89.2,306.3,46.6,217,46.6z"/>
	</g>
	<g class="st0">
		<path class="st1" d="M219.1,131c-40,0-68.9,90.4-68.9,151.4c0,33.3,8.8,54.7,26.8,65.6c1.7,1,2.8,3,2.8,5v4c0,6,3.6,11.2,8.8,13.4
			c-2,2.2-3.3,5-3.3,8.2c0,3,1.1,5.7,2.9,7.8c-1.8,2.1-2.9,4.8-2.9,7.8c0,6.3,4.8,11.3,10.9,12l3.8,7c3.8,7,11.1,11.3,19.1,11.3
			c8,0,15.3-4.3,19.1-11.3l3.8-7c6.1-0.6,10.9-5.7,10.9-12c0-3-1.1-5.7-2.9-7.8c1.8-2.1,2.9-4.8,2.9-7.8c0-3.2-1.3-6-3.3-8.2
			c5.2-2.3,8.8-7.4,8.8-13.4v-4c0-2.1,1.1-4,2.8-5c18.1-10.9,26.8-32.3,26.8-65.6C288,221.5,259,131,219.1,131z M197.4,397.7
			c-1.9,0-3.4-1.5-3.4-3.4c0-1.9,1.5-3.4,3.4-3.4h43.3c1.9,0,3.4,1.5,3.4,3.4c0,1.9-1.5,3.4-3.4,3.4H197.4z M240.7,382.2h-43.3
			c-1.9,0-3.4-1.5-3.4-3.4c0-1.9,1.5-3.4,3.4-3.4h43.3c1.9,0,3.4,1.5,3.4,3.4C244.1,380.6,242.6,382.2,240.7,382.2z M207.6,409.1
			h22.9c-2.2,4.1-6.5,6.8-11.4,6.8C214.1,415.9,209.8,413.2,207.6,409.1z M256.7,340.6c-4.3,2.6-7,7.4-7,12.4v4c0,3.3-2.7,6-6,6
			h-49.3c-3.3,0-6-2.7-6-6v-4c0-5.1-2.7-9.9-7-12.4c-15.2-9.2-22.7-28.2-22.7-58.2c0-61,29.8-142.8,60.2-142.8
			c30.5,0,60.2,81.7,60.2,142.8C279.3,312.4,271.9,331.5,256.7,340.6z"/>
		<path class="st1" d="M255,190.3c-10.9-27.4-24.7-44.4-35.9-44.4c-2.4,0-4.3,1.9-4.3,4.3c0,2.4,1.9,4.3,4.3,4.3
			c4.8,0,16.5,10.6,27.9,39c10.8,27.1,17.5,61.2,17.5,89c0,2.4,1.9,4.3,4.3,4.3c2.4,0,4.3-1.9,4.3-4.3
			C273.1,253.7,266.2,218.4,255,190.3z"/>
	</g>
	<g class="st0">
		<path class="st1" d="M212.8,111.5c-22-0.3-43,8.3-59.1,24.1c-16.4,16.2-25.8,38.6-25.8,61.5v113.8c0,23.9,10.3,46.7,28.3,62.7
			c1.7,1.5,2.7,3.7,2.7,6v15.1c0,8.1,4.9,15,11.9,18c-2.7,2.9-4.4,6.7-4.4,11c0,4,1.5,7.6,3.9,10.4c-2.4,2.8-3.9,6.4-3.9,10.4
			c0,8.4,6.4,15.2,14.6,16.1l5.1,9.3c5.1,9.4,14.9,15.2,25.6,15.2c10.7,0,20.5-5.8,25.6-15.2l5.1-9.3c8.2-0.8,14.6-7.7,14.6-16.1
			c0-4-1.5-7.6-3.9-10.4c2.4-2.8,3.9-6.4,3.9-10.4c0-4.3-1.7-8.1-4.4-11c7-3,11.9-10,11.9-18v-15.1c0-2.3,1-4.5,2.7-6
			c18-16,28.3-38.8,28.3-62.7V195.3C295.4,149.7,258.4,112.1,212.8,111.5z M182.6,449.1c-2.5,0-4.6-2.1-4.6-4.6
			c0-2.5,2.1-4.6,4.6-4.6h58c2.5,0,4.6,2.1,4.6,4.6c0,2.5-2.1,4.6-4.6,4.6H182.6z M240.7,428.2h-58c-2.5,0-4.6-2.1-4.6-4.6
			s2.1-4.6,4.6-4.6h58c2.5,0,4.6,2.1,4.6,4.6S243.2,428.2,240.7,428.2z M196.3,464.4H227c-3,5.4-8.7,9.1-15.4,9.1
			C205,473.5,199.2,469.8,196.3,464.4z M283.8,310.9c0,20.6-8.9,40.2-24.4,54c-4.2,3.7-6.7,9.1-6.7,14.7v15.1c0,4.4-3.6,8-8,8h-66.2
			c-4.4,0-8-3.6-8-8v-15.1c0-5.6-2.4-11-6.7-14.7c-15.5-13.8-24.4-33.4-24.4-54V197.1c0-19.8,8.2-39.1,22.4-53.2
			c13.6-13.4,31.3-20.8,49.8-20.8c0.3,0,0.6,0,0.9,0c39.3,0.5,71.2,32.9,71.2,72.2V310.9z"/>
		<path class="st1" d="M212.5,131.4C212.5,131.4,212.5,131.4,212.5,131.4c-3.3,0-5.8,2.6-5.9,5.7c0,3.2,2.5,5.8,5.7,5.9
			c28.4,0.4,51.5,23.8,51.5,52.3v115.6c0,3.2,2.6,5.8,5.8,5.8c3.2,0,5.8-2.6,5.8-5.8V195.3C275.5,160.5,247.2,131.9,212.5,131.4z"/>
	</g>
	<g class="st0">
		<path class="st1" d="M315,151.3c-29.1-27.2-67.1-40.6-107.1-37.8C138.5,118.3,82,174.3,76.5,243.6c-4.7,59.6,28.6,116.3,82.9,141
			c3,1.4,4.9,4.3,4.9,7.5v5.2c0,8.2,5,15.3,12.1,18.4c-2.8,3-4.5,6.9-4.5,11.2c0,4.1,1.5,7.8,4,10.7c-2.5,2.9-4,6.6-4,10.7
			c0,8.6,6.6,15.5,14.9,16.4l5.2,9.5c5.2,9.6,15.2,15.5,26.1,15.5c10.9,0,20.9-6,26.1-15.5l5.2-9.5c8.3-0.8,14.9-7.8,14.9-16.4
			c0-4.1-1.5-7.8-4-10.7c2.5-2.9,4-6.6,4-10.7c0-4.3-1.7-8.3-4.5-11.2c7.1-3.1,12.1-10.2,12.1-18.4v-5.2c0-3.2,1.9-6.1,4.9-7.5
			c50.6-23,83.3-73.8,83.3-129.4C360.2,215.9,343.7,178,315,151.3z M188.5,452.9c-2.6,0-4.7-2.1-4.7-4.7c0-2.6,2.1-4.7,4.7-4.7h59.3
			c2.6,0,4.7,2.1,4.7,4.7c0,2.6-2.1,4.7-4.7,4.7H188.5z M247.7,431.6h-59.3c-2.6,0-4.7-2.1-4.7-4.7c0-2.6,2.1-4.7,4.7-4.7h59.3
			c2.6,0,4.7,2.1,4.7,4.7C252.4,429.5,250.3,431.6,247.7,431.6z M202.4,468.5h31.4c-3,5.6-8.9,9.3-15.7,9.3
			C211.3,477.8,205.4,474,202.4,468.5z M271.9,373.8c-7.2,3.3-11.9,10.5-11.9,18.3v5.2c0,4.5-3.7,8.2-8.2,8.2h-67.5
			c-4.5,0-8.2-3.7-8.2-8.2v-5.2c0-7.8-4.7-15-11.9-18.3c-49.8-22.6-80.3-74.6-76-129.2c5-63.5,56.8-114.8,120.4-119.3
			c3.2-0.2,6.3-0.3,9.5-0.3c33.1,0,64.3,12.2,88.7,35c26.3,24.6,41.4,59.3,41.4,95.3C348.3,306.1,318.3,352.7,271.9,373.8z"/>
		<path class="st1" d="M218.1,133.4c-3.3,0-5.9,2.7-5.9,5.9c0,3.3,2.7,5.9,5.9,5.9c60.6,0,109.9,49.3,109.9,109.9
			c0,3.3,2.7,5.9,5.9,5.9c3.3,0,5.9-2.7,5.9-5.9C339.8,188.1,285.2,133.4,218.1,133.4z"/>
	</g>
	<g class="st0">
		<path class="st1" d="M219.5,88.4C126.6,88.4,51,134.9,51,192c0,27.7,30.7,46.8,57.9,63.7c15.6,9.7,30.3,18.9,36.5,27.7
			c4.8,6.9,12.6,29.1,11.1,100.3c0,1.8-0.1,3.1-0.1,3.8c0,9.7,5.9,18,14.2,21.6c-3.2,3.5-5.2,8.1-5.2,13.2c0,4.8,1.8,9.1,4.7,12.5
			c-2.9,3.4-4.7,7.7-4.7,12.5c0,10,7.7,18.2,17.5,19.2l6.1,11.2c6.1,11.3,17.8,18.2,30.6,18.2c12.8,0,24.5-7,30.6-18.2l6.1-11.2
			c9.8-1,17.5-9.2,17.5-19.2c0-4.8-1.8-9.1-4.7-12.5c2.9-3.4,4.7-7.7,4.7-12.5c0-5.1-2-9.7-5.2-13.2c8.3-3.6,14.2-11.9,14.2-21.6
			c0-0.7,0-2-0.1-3.8c-1.5-71.2,6.3-93.4,11.1-100.3c6.1-8.9,20.9-18,36.5-27.7c27.1-16.9,57.9-36,57.9-63.7
			C388.1,134.9,312.5,88.4,219.5,88.4z M184.8,452.8c-3,0-5.5-2.5-5.5-5.5s2.5-5.5,5.5-5.5h69.5c3,0,5.5,2.5,5.5,5.5
			s-2.5,5.5-5.5,5.5H184.8z M254.3,427.8h-69.5c-3,0-5.5-2.5-5.5-5.5c0-3,2.5-5.5,5.5-5.5h69.5c3,0,5.5,2.5,5.5,5.5
			C259.8,425.3,257.3,427.8,254.3,427.8z M201.1,471h36.8c-3.5,6.5-10.4,11-18.4,11C211.6,482,204.7,477.6,201.1,471z M322.9,243.9
			c-16.9,10.5-32.8,20.4-40.6,31.6c-10.3,14.9-14.8,50.4-13.6,108.5c0,1.6,0.1,2.8,0.1,3.5c0,5.3-4.3,9.6-9.6,9.6h-79.2
			c-5.3,0-9.6-4.3-9.6-9.6c0-0.6,0-1.8,0.1-3.5c1.2-58.1-3.2-93.6-13.6-108.5c-7.8-11.3-23.7-21.2-40.6-31.6
			c-24-14.9-51.3-31.9-51.3-51.9c0-49.4,69.4-89.6,154.6-89.6s154.6,40.2,154.6,89.6C374.2,212,346.9,228.9,322.9,243.9z"/>
		<path class="st1" d="M219.5,112.3c-3.8,0-7,3.1-7,7c0,3.8,3.1,7,7,7c81,0,130.8,38.3,130.8,65.8c0,3.8,3.1,7,7,7c3.8,0,7-3.1,7-7
			C364.2,153.5,306.1,112.3,219.5,112.3z"/>
	</g>
</g>
</svg>
