<svg width="1000" height="600" viewBox="0 0 1000 600" fill="none" xmlns="http://www.w3.org/2000/svg">
<path d="M196.568 241.356C193.557 239.69 189.746 240.779 188.08 243.822C188.08 243.854 188.048 243.854 188.048 243.886L164.89 286.486L141.733 243.886C140.067 240.843 136.256 239.722 133.213 241.388C130.17 243.054 129.081 246.833 130.715 249.876L158.645 301.284V352.436C158.581 355.895 161.303 358.778 164.794 358.842C168.254 358.906 171.136 356.183 171.2 352.692C171.2 352.596 171.2 352.5 171.2 352.404V301.284L199.098 249.876C200.764 246.865 199.675 243.086 196.696 241.42C196.632 241.388 196.6 241.356 196.568 241.356Z" fill="#50545D"/>
<path d="M873.36 305.929C876.819 305.865 879.573 302.982 879.509 299.523C879.445 296.16 876.723 293.47 873.36 293.373H813.239V253.112H873.36C876.819 253.112 879.637 250.293 879.637 246.834C879.637 243.375 876.819 240.556 873.36 240.556H806.961C803.502 240.556 800.684 243.375 800.684 246.834V352.405C800.684 355.864 803.502 358.683 806.961 358.683H873.36C876.819 358.618 879.573 355.736 879.509 352.277C879.445 348.913 876.723 346.223 873.36 346.127H813.239V305.929H873.36Z" fill="#50545D"/>
<path d="M999.238 349.426L967.144 289.017L998.565 250.838C1000.77 248.147 1000.39 244.208 997.7 241.997C995.01 239.787 991.07 240.172 988.86 242.862L929.829 314.609V246.834C929.829 243.375 927.01 240.556 923.551 240.556C920.092 240.556 917.273 243.375 917.273 246.834V352.405C917.273 355.864 920.092 358.683 923.551 358.683C927.01 358.683 929.829 355.864 929.829 352.405V334.34L958.528 299.459L988.219 355.383C989.917 358.394 993.728 359.483 996.771 357.786C999.718 356.152 1000.84 352.437 999.238 349.426Z" fill="#50545D"/>
<path d="M756.739 240.556H675.959C672.5 240.556 669.681 243.375 669.681 246.834C669.681 250.293 672.5 253.112 675.959 253.112H710.071V352.405C710.071 355.864 712.89 358.683 716.349 358.683C719.808 358.683 722.627 355.864 722.627 352.405V253.112H756.739C760.198 253.112 763.017 250.293 763.017 246.834C763.017 243.375 760.23 240.556 756.739 240.556Z" fill="#50545D"/>
<path d="M457.42 240.556C453.96 240.556 451.142 243.375 451.142 246.834V334.212L379.651 243.022C378.498 241.485 376.704 240.588 374.782 240.556C371.323 240.556 368.505 243.375 368.505 246.834V352.405C368.44 355.864 371.163 358.747 374.654 358.811C378.114 358.875 380.996 356.152 381.06 352.661C381.06 352.565 381.06 352.469 381.06 352.373V265.027L452.583 356.216C453.736 357.754 455.53 358.65 457.452 358.683C460.911 358.683 463.729 355.864 463.729 352.405V246.834C463.697 243.375 460.911 240.556 457.42 240.556Z" fill="#50545D"/>
<path d="M298.167 240.556H243.812C240.353 240.62 237.598 243.503 237.662 246.962C237.726 250.325 240.449 253.016 243.812 253.112H298.167C309.281 253.112 318.282 262.112 318.282 273.227C318.282 284.341 309.281 293.341 298.167 293.341H243.812C240.353 293.341 237.534 296.16 237.534 299.619V352.405C237.534 355.864 240.353 358.683 243.812 358.683C247.271 358.683 250.09 355.864 250.09 352.405V305.897H298.167C316.2 305.897 330.837 291.292 330.837 273.227C330.837 255.194 316.232 240.556 298.167 240.556Z" fill="#50545D"/>
<path d="M86.0324 240.556C82.5732 240.556 79.7545 243.343 79.7545 246.802C79.7545 246.802 79.7545 246.802 79.7545 246.834V293.373H12.5557V246.834C12.6198 243.375 9.89725 240.492 6.40599 240.428C2.94675 240.364 0.0640599 243.086 0 246.578C0 246.674 0 246.77 0 246.866V352.469C0.0640599 355.928 2.94675 358.682 6.40599 358.618C9.76913 358.554 12.4596 355.832 12.5557 352.469V305.897H79.7545V352.437C79.8186 355.896 82.7013 358.65 86.1605 358.586C89.5236 358.522 92.2142 355.8 92.3102 352.437V246.834C92.3102 243.375 89.4916 240.556 86.0324 240.556Z" fill="#50545D"/>
<path d="M572.951 228C533.394 228 501.332 260.062 501.332 299.619C501.332 339.176 533.394 371.238 572.951 371.238C612.508 371.238 644.57 339.176 644.57 299.619C644.57 260.062 612.476 228 572.951 228ZM572.951 358.682C540.344 358.682 513.92 332.257 513.92 299.651C513.92 267.044 540.376 240.556 572.951 240.556C605.525 240.556 632.014 267.012 632.014 299.651C632.014 332.289 605.557 358.682 572.951 358.682Z" fill="#2DBBAB"/>
<path d="M572.951 277.583C569.492 277.583 566.673 280.401 566.673 283.86V315.538C566.609 318.997 569.332 321.88 572.823 321.944C576.282 322.008 579.165 319.285 579.229 315.794C579.229 315.698 579.229 315.602 579.229 315.506V283.828C579.229 280.401 576.411 277.583 572.951 277.583Z" fill="#2DBBAB"/>
</svg>
