<svg width="1000" height="600" viewBox="0 0 1000 600" fill="none" xmlns="http://www.w3.org/2000/svg">
<path d="M252.411 187.497C252.821 200.023 243.666 209.998 229.079 209.998C216.166 209.998 207 200 207 187.497C207 174.584 216.588 164.587 229.91 164.587C243.666 164.587 252.411 174.584 252.411 187.497ZM211.589 445.775V244.159H248.243V445.775H211.589Z" fill="black"/>
<path d="M309.015 150H345.67V445.775H309.015V150Z" fill="black"/>
<path d="M448.186 187.497C448.608 200.023 439.441 209.998 424.855 209.998C411.942 209.998 402.775 200 402.775 187.497C402.775 174.584 412.363 164.587 425.686 164.587C439.441 164.587 448.186 174.584 448.186 187.497ZM407.364 445.775V244.159H444.019V445.775H407.364Z" fill="black"/>
<path d="M648.551 438.283C638.974 443.282 617.726 449.943 590.648 449.943C529.831 449.943 490.25 408.7 490.25 347.051C490.25 284.981 532.746 240.014 598.562 240.014C620.197 240.014 639.384 245.422 649.382 250.421L641.058 278.752C632.302 273.753 618.558 269.164 598.562 269.164C552.32 269.164 527.326 303.325 527.326 345.4C527.326 392.086 557.319 420.804 597.31 420.804C618.148 420.804 631.892 415.395 642.299 410.806L648.551 438.283Z" fill="black"/>
<path d="M741.012 186.245V244.159H793.506V272.068H741.012V380.79C741.012 405.785 748.095 419.95 768.512 419.95C775.673 420.049 782.816 419.211 789.76 417.456L791.422 445.001C784.34 447.916 773.089 450 758.924 450C741.844 450 728.1 444.591 719.355 434.593C708.936 423.753 705.189 405.841 705.189 382.1V272.068H673.943V244.159H705.189V195.832L741.012 186.245Z" fill="black"/>
</svg>
