<svg width="1000" height="600" viewBox="0 0 1000 600" fill="none" xmlns="http://www.w3.org/2000/svg">
<path d="M733.514 50H267V453.16H733.514V50Z" fill="#7BBD48"/>
<path d="M431.881 304.036V287.394H446.347V304.036H431.881ZM431.881 405.248V319.854H446.347V405.248H431.881Z" fill="white"/>
<path d="M468.061 405.248V287.394H482.527V405.248H468.061Z" fill="white"/>
<path d="M504.628 405.248V287.394H519.104V405.248H504.628Z" fill="white"/>
<path d="M597.484 405.248V392.703C590.842 402.354 581.811 407.179 570.391 407.179C565.536 407.217 560.728 406.23 556.281 404.282C552.453 402.761 549.098 400.249 546.562 397.003C544.312 393.795 542.789 390.135 542.1 386.278C541.385 381.812 541.089 377.289 541.215 372.768V319.905H555.681V367.258C555.681 374.821 555.976 379.904 556.566 382.507C557.342 386.098 559.398 389.285 562.35 391.473C565.546 393.716 569.386 394.858 573.289 394.726C577.581 394.731 581.795 393.579 585.488 391.392C589.123 389.352 591.969 386.152 593.57 382.303C595.142 378.474 595.932 372.913 595.938 365.621V319.874H610.404V405.268L597.484 405.248Z" fill="white"/>
<path d="M627.31 379.762L641.624 377.515C642.424 383.249 644.66 387.654 648.333 390.731C652.007 393.808 657.14 395.333 663.735 395.305C670.37 395.305 675.3 393.95 678.526 391.239C681.752 388.528 683.345 385.346 683.304 381.693C683.339 380.146 682.963 378.616 682.215 377.261C681.467 375.905 680.373 374.773 679.045 373.977C677.059 372.683 672.128 371.046 664.253 369.067C653.64 366.397 646.283 364.079 642.183 362.114C638.339 360.385 635.095 357.555 632.861 353.981C630.748 350.536 629.649 346.565 629.689 342.524C629.657 338.839 630.556 335.206 632.302 331.962C634.013 328.751 636.449 325.983 639.418 323.88C642.226 321.961 645.341 320.535 648.628 319.661C652.691 318.485 656.903 317.903 661.132 317.933C667.139 317.817 673.116 318.799 678.77 320.83C683.839 322.748 687.567 325.357 689.953 328.658C692.338 331.958 693.999 336.363 694.934 341.873L680.783 343.805C680.34 339.775 678.332 336.081 675.192 333.517C672.155 331.07 667.825 329.847 662.2 329.847C655.551 329.847 650.807 330.945 647.967 333.141C645.128 335.337 643.711 337.912 643.718 340.867C643.699 342.714 644.321 344.51 645.477 345.95C646.95 347.709 648.866 349.042 651.027 349.813C652.478 350.342 656.737 351.572 663.806 353.503C674.04 356.214 681.183 358.451 685.236 360.213C689.071 361.788 692.376 364.426 694.761 367.817C697.167 371.487 698.375 375.813 698.217 380.199C698.207 385.06 696.738 389.805 693.999 393.821C690.99 398.243 686.747 401.682 681.8 403.713C676.104 406.12 669.968 407.312 663.786 407.21C652.691 407.21 644.22 404.902 638.371 400.287C632.522 395.671 628.835 388.83 627.31 379.762Z" fill="white"/>
<path d="M513.594 503.166V498.805H517.386V503.166H513.594ZM513.594 529.678V507.313H517.386V529.678H513.594Z" fill="#838282"/>
<path d="M523.069 529.678V498.805H526.861V529.678H523.069Z" fill="#838282"/>
<path d="M532.656 529.678V498.805H536.447V529.678H532.656Z" fill="#838282"/>
<path d="M556.972 529.678V526.395C556.213 527.586 555.159 528.56 553.912 529.222C552.665 529.885 551.268 530.214 549.856 530.176C548.584 530.189 547.322 529.933 546.156 529.424C545.153 529.026 544.276 528.366 543.614 527.513C543.025 526.674 542.626 525.717 542.445 524.707C542.259 523.538 542.181 522.353 542.211 521.17V507.313H546.064V519.716C546.022 521.055 546.1 522.396 546.298 523.721C546.496 524.661 547.035 525.495 547.813 526.059C548.65 526.649 549.657 526.949 550.68 526.913C551.804 526.918 552.907 526.616 553.872 526.039C554.827 525.51 555.573 524.671 555.986 523.66C556.473 522.257 556.687 520.773 556.617 519.289V507.313H560.408V529.678H556.972Z" fill="#838282"/>
<path d="M566.305 529.678V507.313H569.69V510.455C570.395 509.357 571.358 508.449 572.496 507.812C573.709 507.122 575.085 506.771 576.481 506.795C577.906 506.73 579.32 507.084 580.547 507.812C581.603 508.487 582.393 509.507 582.784 510.699C583.498 509.502 584.51 508.512 585.722 507.824C586.934 507.136 588.303 506.775 589.696 506.775C590.624 506.719 591.554 506.854 592.428 507.17C593.302 507.487 594.102 507.978 594.779 508.615C595.965 509.841 596.562 511.736 596.569 514.297V529.648H592.828V515.588C592.876 514.486 592.756 513.382 592.472 512.315C592.218 511.644 591.745 511.078 591.13 510.709C590.448 510.285 589.655 510.073 588.853 510.099C588.128 510.077 587.406 510.205 586.733 510.475C586.06 510.744 585.449 511.149 584.939 511.664C583.922 512.681 583.383 514.379 583.383 516.686V529.678H579.612V515.141C579.703 513.814 579.376 512.491 578.677 511.359C578.313 510.912 577.844 510.563 577.311 510.343C576.779 510.123 576.2 510.039 575.627 510.099C574.578 510.091 573.549 510.38 572.658 510.932C571.742 511.511 571.047 512.381 570.686 513.403C570.223 514.913 570.017 516.49 570.076 518.069V529.678H566.305Z" fill="#838282"/>
<path d="M602.241 503.166V498.805H606.043V503.166H602.241ZM602.241 529.678V507.313H606.043V529.678H602.241Z" fill="#838282"/>
<path d="M611.807 529.678V507.313H615.193V510.495C615.952 509.312 617.009 508.348 618.258 507.7C619.507 507.053 620.903 506.744 622.309 506.805C623.583 506.791 624.846 507.04 626.019 507.537C627.028 507.92 627.908 508.579 628.561 509.438C629.145 510.281 629.547 511.237 629.74 512.244C629.917 513.462 629.989 514.693 629.953 515.924V529.678H626.162V516.076C626.214 514.904 626.062 513.731 625.714 512.61C625.418 511.838 624.865 511.192 624.149 510.78C623.348 510.311 622.433 510.075 621.506 510.099C619.972 510.069 618.482 510.613 617.327 511.624C616.155 512.661 615.569 514.606 615.569 517.459V529.658L611.807 529.678Z" fill="#838282"/>
<path d="M650.377 526.913C649.178 527.986 647.802 528.843 646.31 529.445C644.973 529.939 643.558 530.187 642.132 530.176C640.085 530.312 638.063 529.67 636.47 528.377C635.815 527.806 635.294 527.099 634.943 526.305C634.592 525.511 634.419 524.65 634.437 523.782C634.433 522.762 634.679 521.757 635.152 520.854C635.625 519.95 636.311 519.176 637.151 518.598C637.986 518.039 638.906 517.62 639.875 517.357C640.984 517.098 642.108 516.908 643.24 516.788C645.531 516.575 647.795 516.14 650.001 515.487C650.001 514.968 650.001 514.633 650.001 514.47C650.063 513.882 650 513.287 649.816 512.724C649.632 512.162 649.331 511.645 648.933 511.207C647.697 510.268 646.161 509.813 644.613 509.926C643.23 509.824 641.849 510.151 640.658 510.861C639.677 511.723 639.014 512.891 638.777 514.175L635.067 513.667C635.317 512.273 635.892 510.956 636.744 509.824C637.621 508.776 638.777 507.997 640.079 507.578C641.714 507.021 643.434 506.753 645.162 506.785C646.744 506.735 648.323 506.962 649.828 507.456C650.835 507.79 651.74 508.374 652.461 509.153C653.051 509.908 653.452 510.794 653.63 511.736C653.793 512.894 653.858 514.064 653.823 515.233V520.316C653.764 522.545 653.845 524.776 654.067 526.995C654.232 527.94 654.555 528.851 655.023 529.689H651.068C650.673 528.812 650.439 527.872 650.377 526.913ZM650.062 518.455C648.06 519.167 645.982 519.644 643.871 519.878C642.743 520.004 641.635 520.26 640.567 520.641C639.956 520.891 639.435 521.32 639.072 521.871C638.638 522.547 638.462 523.357 638.576 524.152C638.69 524.947 639.086 525.675 639.692 526.202C640.652 526.941 641.849 527.302 643.057 527.218C644.416 527.243 645.758 526.913 646.951 526.263C648.036 525.668 648.909 524.752 649.452 523.64C649.919 522.436 650.127 521.148 650.062 519.858V518.455Z" fill="#838282"/>
<path d="M668.055 526.283L668.604 529.628C667.666 529.84 666.709 529.956 665.748 529.973C664.638 530.03 663.532 529.803 662.535 529.312C661.83 528.934 661.269 528.334 660.939 527.605C660.537 526.15 660.379 524.638 660.472 523.132V510.261H657.696V507.313H660.472V501.773L664.253 499.506V507.313H668.055V510.261H664.253V523.335C664.214 524.018 664.279 524.704 664.446 525.368C664.585 525.674 664.811 525.933 665.097 526.11C665.5 526.311 665.948 526.406 666.398 526.385C666.952 526.39 667.506 526.356 668.055 526.283V526.283Z" fill="#838282"/>
<path d="M671.766 503.166V498.805H675.558V503.166H671.766ZM671.766 529.678V507.313H675.558V529.678H671.766Z" fill="#838282"/>
<path d="M679.919 518.496C679.919 514.358 681.057 511.288 683.365 509.296C685.323 507.626 687.828 506.739 690.4 506.805C691.8 506.759 693.195 507.007 694.494 507.532C695.793 508.057 696.968 508.848 697.943 509.855C699.885 511.888 700.861 514.653 700.861 518.211C700.973 520.545 700.531 522.872 699.57 525.002C698.723 526.63 697.409 527.968 695.798 528.845C694.145 529.753 692.286 530.222 690.4 530.207C688.991 530.261 687.586 530.017 686.278 529.492C684.969 528.966 683.786 528.171 682.806 527.157C680.885 525.165 679.919 522.267 679.919 518.496ZM683.812 518.496C683.812 521.349 684.436 523.491 685.683 524.921C686.268 525.595 686.991 526.136 687.803 526.506C688.615 526.877 689.497 527.068 690.39 527.068C691.282 527.068 692.164 526.877 692.977 526.506C693.789 526.136 694.512 525.595 695.097 524.921C696.35 523.498 696.974 521.315 696.967 518.374C696.967 515.609 696.34 513.515 695.086 512.091C694.5 511.422 693.777 510.885 692.966 510.518C692.155 510.15 691.275 509.96 690.385 509.96C689.494 509.96 688.614 510.15 687.804 510.518C686.993 510.885 686.27 511.422 685.683 512.091C684.433 513.494 683.812 515.629 683.812 518.496Z" fill="#838282"/>
<path d="M705.303 529.678V507.313H708.719V510.495C709.479 509.312 710.536 508.348 711.784 507.7C713.033 507.053 714.43 506.744 715.835 506.805C717.112 506.79 718.379 507.039 719.556 507.537C720.561 507.926 721.44 508.584 722.097 509.438C722.681 510.281 723.083 511.237 723.276 512.244C723.444 513.463 723.512 514.694 723.48 515.924V529.678H719.688V516.076C719.742 514.904 719.594 513.732 719.251 512.61C718.95 511.837 718.394 511.192 717.675 510.78C716.879 510.31 715.966 510.073 715.042 510.099C713.508 510.069 712.018 510.613 710.864 511.624C709.695 512.64 709.095 514.602 709.095 517.459V529.658L705.303 529.678Z" fill="#838282"/>
<path d="M502.93 462.807H497.593V550H502.93V462.807Z" fill="#838282"/>
</svg>
