<svg width="1000" height="600" viewBox="0 0 1000 600" fill="none" xmlns="http://www.w3.org/2000/svg">
<path d="M730 70H270V530H730V70Z" fill="#72BE44"/>
<path d="M376.092 163.916H362.009V178.125H376.092V163.916Z" fill="white"/>
<path d="M394.658 223.832C394.878 231.483 392.682 239.008 388.383 245.341C386.174 248.505 383.234 251.09 379.812 252.874C376.39 254.659 372.588 255.59 368.729 255.59C364.87 255.59 361.068 254.659 357.646 252.874C354.225 251.09 351.284 248.505 349.075 245.341C344.737 239.021 342.496 231.496 342.671 223.832V189.907H328.228V225.495C328.088 231.248 329.092 236.972 331.18 242.335C333.268 247.697 336.4 252.592 340.394 256.735C343.964 260.731 348.347 263.917 353.248 266.081C358.15 268.245 363.458 269.335 368.816 269.28C374.242 269.339 379.615 268.199 384.55 265.942C389.485 263.685 393.862 260.366 397.366 256.222C405.106 247.881 409.325 236.873 409.144 225.495V189.907H394.677L394.658 223.832Z" fill="white"/>
<path d="M436.401 238.812C436.401 251.103 430.509 256.989 418.607 256.989V269.28C440.624 269.28 450.724 259.693 450.724 236.636V189.907H436.386L436.401 238.812Z" fill="white"/>
<path d="M450.614 163.916H436.53V178.125H450.614V163.916Z" fill="white"/>
<path d="M550.604 163.658H536.52V177.866H550.604V163.658Z" fill="white"/>
<path d="M642.277 199.888C638.399 199.759 634.536 200.436 630.933 201.877C627.329 203.318 624.065 205.491 621.345 208.259C618.625 211.027 616.51 214.33 615.132 217.957C613.755 221.585 613.145 225.459 613.343 229.335C613.364 230.491 613.451 231.645 613.601 232.791L613.731 233.433H586.321C585.175 215.64 578.771 203.234 567.123 196.043C560.085 191.852 552.01 189.725 543.821 189.903C538 189.921 532.246 191.14 526.919 193.483C521.867 195.715 517.235 198.796 513.223 202.591C516.42 207.457 518.726 211.172 520.136 213.861C523.308 210.333 527.242 207.574 531.64 205.793C535.028 204.279 538.683 203.453 542.392 203.363C546.568 203.149 550.735 203.918 554.56 205.607C558.385 207.296 561.76 209.859 564.414 213.089C568.931 218.896 571.284 226.095 571.068 233.448H493.248C489.441 233.792 485.614 233.036 482.223 231.272C480.636 229.68 479.44 227.741 478.729 225.608C478.019 223.475 477.813 221.206 478.129 218.981V165.45H463.916V224.738C463.562 230.722 465.382 236.633 469.04 241.381C470.993 243.64 473.442 245.416 476.196 246.572C478.949 247.727 481.932 248.229 484.912 248.04H619.104C621.72 251.71 625.207 254.673 629.252 256.661C633.297 258.649 637.773 259.601 642.277 259.429C646.148 259.53 649.999 258.827 653.585 257.364C657.171 255.902 660.415 253.711 663.112 250.931C665.808 248.152 667.899 244.843 669.252 241.214C670.605 237.585 671.19 233.715 670.971 229.848C671.174 225.967 670.581 222.085 669.227 218.442C667.873 214.799 665.788 211.472 663.1 208.665C660.412 205.859 657.178 203.632 653.596 202.122C650.015 200.613 646.163 199.852 642.277 199.888V199.888ZM642.66 246.108C634.085 246.108 628.069 238.812 628.069 229.206C628.069 219.599 633.821 212.821 641.893 212.821C650.345 212.821 656.231 220.117 656.231 229.848C656.231 239.579 650.599 246.108 642.66 246.108V246.108Z" fill="white"/>
<path d="M351.223 286.436H338.625V299.149H351.223V286.436Z" fill="white"/>
<path d="M356.031 309.681C352.375 309.581 348.738 310.237 345.348 311.608C341.958 312.979 338.887 315.035 336.328 317.648C333.769 320.26 331.778 323.373 330.478 326.792C329.178 330.21 328.598 333.86 328.775 337.512C328.594 341.182 329.169 344.849 330.463 348.287C331.757 351.725 333.744 354.861 336.299 357.5C338.854 360.14 341.923 362.227 345.317 363.632C348.711 365.037 352.358 365.731 356.031 365.67C359.666 365.767 363.281 365.111 366.65 363.743C370.019 362.375 373.069 360.326 375.607 357.723C378.146 355.119 380.119 352.02 381.402 348.617C382.685 345.215 383.25 341.585 383.062 337.953C383.279 334.289 382.737 330.619 381.472 327.174C380.206 323.728 378.244 320.58 375.707 317.927C373.171 315.274 370.114 313.172 366.729 311.753C363.343 310.334 359.701 309.629 356.031 309.681V309.681ZM356.376 354.118C348.131 354.118 342.062 346.927 342.062 337.397C342.062 328.122 347.101 321.133 355.576 321.133C364.281 321.133 369.889 328.347 369.889 337.968C369.889 347.243 364.621 354.118 356.376 354.118V354.118Z" fill="white"/>
<path d="M372.986 286.436H360.388V299.149H372.986V286.436Z" fill="white"/>
<path d="M414.211 343.926C414.093 341.252 414.816 338.609 416.277 336.367C416.995 335.237 417.996 334.314 419.181 333.691C420.366 333.068 421.693 332.766 423.031 332.815C424.903 332.707 426.753 333.27 428.247 334.403C429.74 335.537 430.781 337.166 431.181 338.998L440.346 332.7C438.87 329.194 436.38 326.209 433.196 324.127C430.012 322.046 426.279 320.963 422.475 321.018C419.639 320.95 416.821 321.487 414.208 322.593C411.596 323.699 409.249 325.348 407.323 327.431C403.442 331.676 401.35 337.256 401.484 343.006C401.476 346.311 402.138 349.584 403.43 352.627H393.009V365.67H441.563V352.612H417.059C415.044 350.182 414.026 347.078 414.211 343.926Z" fill="white"/>
<path d="M555.081 290.444H542.483V303.157H555.081V290.444Z" fill="white"/>
<path d="M550.388 313.463C538.131 313.463 525.423 321.133 515.457 334.876V319.172H502.634V339.099C502.634 348.149 499.422 352.612 492.893 352.612H479.706C476.306 352.918 472.889 352.242 469.86 350.666C468.439 349.243 467.368 347.51 466.732 345.602C466.096 343.695 465.911 341.665 466.193 339.674V291.82H453.485V344.842C453.176 350.184 454.801 355.46 458.063 359.702C459.81 361.725 462.001 363.315 464.465 364.349C466.93 365.382 469.6 365.831 472.267 365.661H579.346C579.691 361.423 579.917 357.511 579.917 353.748C579.931 326.976 570.085 313.463 550.388 313.463ZM566.648 352.627H515.572C522.671 336.808 536.3 324.915 549.127 324.915C560.004 324.915 566.864 334.19 566.864 348.964L566.648 352.627Z" fill="white"/>
<path d="M634.54 339.114C634.945 343.057 633.794 347.002 631.333 350.11C630.271 351.031 629.035 351.729 627.697 352.161C626.359 352.594 624.948 352.752 623.548 352.627L609.23 299.95H595.721L610.15 352.627H592.625V365.67H626.87C639.238 365.67 647.003 358.566 647.003 347.689V291.82H634.54V339.114Z" fill="white"/>
<path d="M601.814 379.543C601.747 378.436 602.117 377.348 602.845 376.512C603.573 375.676 604.601 375.16 605.706 375.075C606.463 374.997 607.22 375.216 607.818 375.686C608.417 376.155 608.809 376.838 608.913 377.592L613.036 375.646C612.535 374.123 611.57 372.796 610.276 371.85C608.982 370.904 607.424 370.388 605.821 370.373C604.608 370.402 603.413 370.672 602.305 371.167C601.197 371.662 600.198 372.372 599.367 373.257C598.536 374.141 597.889 375.182 597.464 376.319C597.039 377.456 596.844 378.666 596.891 379.878C597.102 381.244 597.446 382.586 597.917 383.886H593.315V389.159H613.132V383.886H603.861C603.156 383.417 602.593 382.765 602.232 382C601.871 381.234 601.727 380.385 601.814 379.543V379.543Z" fill="white"/>
<path d="M671.791 291.705H659.078V365.684H671.791V291.705Z" fill="white"/>
<path d="M347.551 437.349H328.775V407.005H333.707V432.378H347.551V437.349Z" fill="white"/>
<path d="M350.514 407.005H355.446V437.349H350.514V407.005Z" fill="white"/>
<path d="M360.508 416.262C360.598 414.844 360.975 413.459 361.617 412.192C362.259 410.925 363.153 409.802 364.243 408.891C365.333 407.981 366.598 407.302 367.959 406.896C369.321 406.49 370.751 406.366 372.162 406.531C374.452 406.44 376.72 407.021 378.685 408.201C380.651 409.381 382.229 411.11 383.225 413.175L378.767 415.274C378.13 414.063 377.16 413.058 375.971 412.379C374.782 411.699 373.424 411.373 372.056 411.44C368.753 411.44 365.412 413.026 365.412 416.233V427.848C365.412 431.151 368.796 432.738 372.123 432.738C375.45 432.738 378.945 431.151 378.945 427.848V425.49H370.412V420.734H383.872V427.848C383.397 430.607 381.962 433.109 379.821 434.912C377.68 436.716 374.971 437.705 372.171 437.705C369.372 437.705 366.662 436.716 364.521 434.912C362.38 433.109 360.945 430.607 360.47 427.848L360.508 416.262Z" fill="white"/>
<path d="M406.934 424.665H393.421V437.349H388.445V407.005H393.421V419.733H406.92V407.005H411.896V437.349H406.92L406.934 424.665Z" fill="white"/>
<path d="M438.577 406.962V411.933H429.373V437.34H424.402V411.933H415.184V406.962H438.577Z" fill="white"/>
<path d="M441.357 407.005H446.29V437.349H441.357V407.005Z" fill="white"/>
<path d="M457.406 420.418V437.349H452.435V407.005H457.656L468.202 424.919L471.327 430.964L471.629 430.878L470.9 424.363V407.005H475.871V437.349H470.119L459.789 419.776L456.956 413.99L456.659 414.076L457.406 420.418Z" fill="white"/>
<path d="M480.948 416.262C481.038 414.844 481.416 413.459 482.058 412.192C482.701 410.925 483.595 409.802 484.686 408.891C485.776 407.981 487.041 407.302 488.403 406.896C489.765 406.49 491.195 406.366 492.606 406.531C494.897 406.441 497.164 407.022 499.129 408.202C501.094 409.382 502.673 411.111 503.67 413.175L499.207 415.274C498.569 414.063 497.599 413.058 496.41 412.379C495.221 411.699 493.863 411.373 492.496 411.44C489.198 411.44 485.856 413.026 485.856 416.233V427.848C485.856 431.151 489.241 432.738 492.568 432.738C495.894 432.738 499.384 431.151 499.384 427.848V425.49H490.856V420.734H504.317V427.848C503.844 430.61 502.41 433.115 500.268 434.922C498.126 436.728 495.415 437.719 492.613 437.719C489.811 437.719 487.1 436.728 484.958 434.922C482.816 433.115 481.382 430.61 480.909 427.848L480.948 416.262Z" fill="white"/>
<path d="M531.842 419.306C537.158 420.289 543.073 422.22 542.646 429.334C542.387 435.12 536.861 437.824 531.329 437.824C528.925 437.851 526.566 437.17 524.546 435.867C522.526 434.564 520.934 432.695 519.968 430.494L524.512 428.433C525.102 429.772 526.069 430.911 527.294 431.71C528.52 432.509 529.952 432.934 531.415 432.934C534.502 432.934 537.46 431.606 537.647 428.951C537.905 425.518 534.521 424.636 530.792 424.061C525.687 423.289 520.543 420.936 520.505 414.891C520.873 412.351 522.215 410.054 524.247 408.486C526.279 406.918 528.841 406.201 531.391 406.488C533.666 406.324 535.936 406.866 537.892 408.039C539.848 409.213 541.394 410.961 542.32 413.045L537.819 415.02C537.286 413.783 536.38 412.742 535.228 412.043C534.076 411.343 532.735 411.02 531.391 411.118C528.433 411.118 525.639 412.489 525.476 415.059C525.246 417.719 528.63 418.707 531.842 419.306Z" fill="white"/>
<path d="M567.597 406.962V411.933H558.384V437.34H553.408V411.933H544.195V406.962H567.597Z" fill="white"/>
<path d="M580.808 406.315C586.935 406.315 593.109 409.575 593.109 416.132V428.179C593.109 434.737 586.935 438.039 580.808 438.039C574.682 438.039 568.546 434.737 568.546 428.179V416.132C568.546 409.575 574.62 406.315 580.808 406.315ZM573.479 428.179C573.479 431.439 577.117 433.107 580.808 433.107C584.499 433.107 588.138 431.439 588.181 428.179V416.132C588.181 412.662 584.495 411.205 580.808 411.205C577.122 411.205 573.479 412.748 573.479 416.132V428.179Z" fill="white"/>
<path d="M622.264 437.349H616.219L607.111 425.605H603.468V437.349H598.497V407.005H610.236C616.195 407.005 620.696 409.704 620.869 416.391C620.955 417.515 620.815 418.645 620.456 419.714C620.096 420.782 619.526 421.768 618.778 422.611C618.03 423.455 617.121 424.139 616.103 424.624C615.085 425.109 613.98 425.383 612.854 425.432L622.264 437.349ZM610.28 421.276C613.712 421.276 615.898 419.838 615.898 416.435C615.898 413.031 613.582 411.89 610.28 411.976H603.468V421.276H610.28Z" fill="white"/>
<path d="M645.206 411.933H630.163V419.689H644.007V424.665H630.163V432.378H645.206V437.349H625.188V406.962H645.206V411.933Z" fill="white"/>
<path d="M660.133 419.306C665.444 420.289 671.36 422.22 670.933 429.334C670.679 435.12 665.147 437.824 659.615 437.824C657.212 437.85 654.853 437.169 652.834 435.866C650.814 434.563 649.221 432.695 648.255 430.494L652.799 428.433C653.389 429.772 654.356 430.91 655.582 431.709C656.807 432.508 658.239 432.934 659.702 432.934C662.789 432.934 665.746 431.606 665.933 428.951C666.192 425.518 662.803 424.636 659.074 424.061C653.973 423.289 648.83 420.936 648.787 414.891C649.155 412.351 650.497 410.054 652.529 408.486C654.56 406.918 657.122 406.201 659.673 406.488C661.949 406.323 664.22 406.864 666.177 408.038C668.134 409.211 669.681 410.96 670.607 413.045L666.106 415.02C665.571 413.783 664.665 412.742 663.512 412.043C662.359 411.344 661.018 411.021 659.673 411.118C656.715 411.118 653.921 412.489 653.758 415.059C653.532 417.719 656.917 418.707 660.133 419.306Z" fill="white"/>
</svg>
