<?xml version="1.0" encoding="utf-8"?>
<!-- Generator: Adobe Illustrator 24.2.1, SVG Export Plug-In . SVG Version: 6.00 Build 0)  -->
<svg version="1.1" id="Layer_1" xmlns="http://www.w3.org/2000/svg" xmlns:xlink="http://www.w3.org/1999/xlink" x="0px" y="0px"
	 viewBox="0 0 925.8 482.4" style="enable-background:new 0 0 925.8 482.4;" xml:space="preserve">
<style type="text/css">
	.st0{fill:#333333;}
</style>
<path class="st0" d="M120.9,65.2c1.1,29.3-20.2,52.8-54.4,53c-30.3,0.2-51.9-23.2-52-52.5c-0.2-30.3,22.2-53.8,53.4-54
	C100.1,11.6,120.7,35,120.9,65.2z M23.9,482.5l-1.8-342.2l102-0.5L126,482L23.9,482.5z"/>
<path class="st0" d="M146.3,10.6l104-0.2l0.8,471.5l-104,0.2L146.3,10.6z"/>
<g>
	<path class="st0" d="M687.6,452.4l-13.6,7.4c-12,6.5-31,13.4-54.7,17.7c-13,2.3-27.5,3.9-43.1,4.1c-51.2,0.8-95.2-15.6-127.2-47.5
		c-31.7-31.6-49-75.7-49.8-127.6c-0.9-51.9,16.5-99.1,48.8-132.8c33.4-34.8,79.9-53.7,134.3-54.6c37.4-0.6,69.6,8.2,87.2,16.6
		l15.1,7.2l-23.3,84.2L639.3,215c-9.7-5.3-27.2-11.6-55.5-11.2c-27.7,0.5-50.4,10.3-65.8,28.5c-14.6,17.4-22.4,42.2-22,70
		c0.5,29.2,9.6,53.6,26.3,70.5c15.9,16,37.6,24.2,62.7,23.8c27.7-0.5,45.9-7.8,60.8-14.7l22-10.1L687.6,452.4z"/>
</g>
<g>
	<path class="st0" d="M833.5,365.1c-0.6,17.7,2,25.9,4.4,29.7c1.1,1.8,3.2,5.2,12.9,5.5c11.7,0.4,19.8-0.9,24.5-2l23.9-5.7l2.2,77.3
		l-13.4,5c-13.5,5.1-32.3,7.5-53.2,6.8c-12.2-0.4-23.5-2.4-33.6-6c-14.3-5-26.3-13.2-35.5-24.2c-16.5-18.5-23.6-46.4-22.3-87.5
		l4.2-133.4l-43.6-1.4l2.5-78.9l43.6,1.4l2-62.8l90.7-21.2l-2.8,86.8l73.2,2.3l-2.5,78.9l-73.2-2.3L833.5,365.1z"/>
</g>
<path class="st0" d="M372.3,64.3c1.1,29.3-20.2,52.8-54.4,53c-30.3,0.2-51.9-23.2-52-52.5c-0.2-30.3,22.2-53.8,53.4-54
	C351.5,10.7,372.1,34.1,372.3,64.3z M275.3,481.6l-1.8-342.2l102-0.5l1.8,342.2L275.3,481.6z"/>
</svg>
