<?xml version="1.0" encoding="utf-8"?>
<!-- Generator: Adobe Illustrator 24.2.1, SVG Export Plug-In . SVG Version: 6.00 Build 0)  -->
<svg version="1.1" id="Layer_1" xmlns="http://www.w3.org/2000/svg" xmlns:xlink="http://www.w3.org/1999/xlink" x="0px" y="0px"
	 viewBox="0 0 1482.1 663.2" style="enable-background:new 0 0 1482.1 663.2;" xml:space="preserve">
<path d="M296.1,114.2c-12.6,26.5-42.4,37.4-72.8,21.7c-26.9-13.9-35.2-44.6-21.8-70.6c13.9-26.9,44.6-37.4,72.3-23.1
	C302.6,57.1,310,87.4,296.1,114.2z M16.8,439l157.1-304.1l90.7,46.8L107.5,485.8L16.8,439z"/>
<path d="M624.6,183.1l45,93.7L244.5,480.9l-45-93.7L624.6,183.1z"/>
<path d="M652.2,332l45,93.7L272.2,629.8l-45-93.7L652.2,332z"/>
<path d="M962.9,225.1c-13.4,26.1-43.5,36.1-73.4,19.6c-26.5-14.7-33.9-45.6-19.7-71.2c14.7-26.5,45.7-36,73-20.9
	C971,168.2,977.6,198.7,962.9,225.1z M674,541.4L840,242.2l89.2,49.5L763.2,590.9L674,541.4z"/>
<g>
	<path d="M1176.9,611.1c-15.7,5.2-49.6,10.1-90.6,3.4c-92.2-15-142-87.2-126.8-180.6c15.3-94,90.7-151.8,190.4-135.6
		c32.8,5.3,60.5,18.2,74.4,28.3l-19.6,40.9c-12-9.7-31.7-20.1-62-25c-70.1-11.4-116.3,34.2-126.7,98
		c-11.5,70.7,26.9,121.6,87.5,131.5c31.6,5.1,53.7,0.3,70.6-4.1L1176.9,611.1z"/>
	<path d="M1126.2,637.8c-13.3,0-27.8-1-43.1-3.5c-50.6-8.2-91-32.1-116.8-69.2c-25.6-36.7-34.8-83.2-26.5-134.4
		c8.3-51.3,33.7-94.6,71.5-122.1c39-28.4,88.1-38.7,141.9-30c36.9,6,67.1,20.4,82.9,31.8l13.6,9.8l-37.8,78.8l-19.7-15.9
		c-8.6-7-24.8-16.3-52.7-20.8c-27.3-4.4-51.4,1.3-69.8,16.5c-17.5,14.5-29.5,37.6-34,65c-4.7,28.9,0,54.5,13.4,74
		c12.8,18.6,32.7,30.5,57.5,34.5c27.3,4.4,46.5,0.4,62.4-3.7l23.5-6.1l5.2,82.8l-14.6,4.8C1170.3,634.4,1150.4,637.8,1126.2,637.8z
		 M1117.1,315.6c-31.1,0-59.2,8.6-82.2,25.3c-29.6,21.5-48.9,54.8-55.6,96.2c-6.6,40.7,0.2,77,19.8,105.1
		c19.5,28,50.8,46.2,90.5,52.6c27.5,4.5,50.9,3.2,66.4,0.7l-0.2-3.3c-15.7,2.4-33.6,3-55.3-0.5c-74.1-12-116.8-75.5-104-154.4
		c6-36.9,23-68.7,47.9-89.3c27.5-22.8,62.7-31.5,101.7-25.2c21.4,3.5,38,9.4,50.5,15.8l2-4.1c-13.5-6.7-31.9-13.2-51.7-16.4
		C1136.6,316.4,1126.7,315.6,1117.1,315.6z"/>
</g>
<g>
	<path d="M1274.1,89.6l24.4,77l69.8-22.1l11.8,37.1l-69.8,22.1l45.9,144.6c10.5,33.3,25.9,49.1,53.1,40.5c12.7-4,21.6-8.7,27.2-12.3
		l13.8,35.9c-8.2,6.9-22.3,14.4-41.1,20.4c-22.7,7.2-43.3,5.8-59.1-3.8c-18.4-10-31-32.3-41-63.9l-46.4-146.3l-41.6,13.2l-11.8-37.1
		l41.6-13.2l-20.4-64.3L1274.1,89.6z"/>
	<path d="M1381.6,457.4c-15.2,0-29.2-3.7-41.5-11.1c-21.7-12-37.6-35.9-50.1-75.1L1249.6,244l-41.6,13.2l-23.9-75.3l41.6-13.2
		l-19-59.9l78.5-50.1l26.3,82.8l69.8-22.1l23.9,75.3l-69.8,22.1l39.8,125.6c5.3,16.8,10.5,23.7,14,26.5c1.6,1.4,4.7,3.9,14,0.9
		c11.2-3.5,18.4-7.4,22.4-10l20.7-13.3l27.8,72.2l-11,9.2c-11,9.2-28,17.8-47.9,24.1C1403.5,455.6,1392.3,457.4,1381.6,457.4z
		 M1275.7,193.7l52.4,165.4c9.1,28.6,19.4,45.7,31.5,52.3l0.8,0.5c13.8,8.4,30.8,5.6,42.7,1.9c8.4-2.7,16.2-5.9,22.7-9.2l-0.1-0.3
		c-3.2,1.3-6.6,2.5-10.4,3.7c-24.8,7.9-41.7-0.1-51.5-8.2c-11.4-9.3-19.8-23.7-26.7-45.3l-74.2-234l-8.7,5.6L1275.7,193.7z"/>
</g>
</svg>
