<?xml version="1.0" encoding="utf-8"?>
<!-- Generator: Adobe Illustrator 24.2.1, SVG Export Plug-In . SVG Version: 6.00 Build 0)  -->
<svg version="1.1" id="Layer_1" xmlns="http://www.w3.org/2000/svg" xmlns:xlink="http://www.w3.org/1999/xlink" x="0px" y="0px"
	 viewBox="0 0 542.8 297.3" style="enable-background:new 0 0 542.8 297.3;" xml:space="preserve">
<g>
	<path d="M51.3,48.3c0.4,11-7.7,19.8-20.5,19.8c-11.3,0-19.4-8.8-19.4-19.8c0-11.3,8.4-20.1,20.1-20.1
		C43.6,28.1,51.3,36.9,51.3,48.3z M15.5,275.1V98h32.2v177.1H15.5z"/>
	<path d="M101.1,15.3h32.2v259.7h-32.2V15.3z"/>
	<path d="M223.3,48.3c0.4,11-7.7,19.8-20.5,19.8c-11.3,0-19.4-8.8-19.4-19.8c0-11.3,8.4-20.1,20.1-20.1
		C215.6,28.1,223.3,36.9,223.3,48.3z M187.4,275.1V98h32.2v177.1H187.4z"/>
	<path d="M399.2,268.5c-8.4,4.4-27.1,10.2-50.9,10.2c-53.4,0-88.2-36.2-88.2-90.4c0-54.5,37.3-94,95.1-94c19,0,35.9,4.8,44.6,9.1
		l-7.3,24.9c-7.7-4.4-19.8-8.4-37.3-8.4c-40.6,0-62.6,30-62.6,66.9c0,41,26.3,66.2,61.5,66.2c18.3,0,30.4-4.8,39.5-8.8L399.2,268.5z
		"/>
	<path d="M480.4,47.2V98h46.1v24.5h-46.1V218c0,22,6.2,34.4,24.1,34.4c8.4,0,14.6-1.1,18.7-2.2l1.5,24.1c-6.2,2.6-16.1,4.4-28.5,4.4
		c-15,0-27.1-4.8-34.8-13.5c-9.1-9.5-12.4-25.2-12.4-46.1v-96.6h-27.4V98H449V55.6L480.4,47.2z"/>
</g>
</svg>
