<?xml version="1.0" encoding="utf-8"?>
<!-- Generator: Adobe Illustrator 24.2.1, SVG Export Plug-In . SVG Version: 6.00 Build 0)  -->
<svg version="1.1" id="Layer_1" xmlns="http://www.w3.org/2000/svg" xmlns:xlink="http://www.w3.org/1999/xlink" x="0px" y="0px"
	 viewBox="0 0 473 518.6" style="enable-background:new 0 0 473 518.6;" xml:space="preserve">
<style type="text/css">
	.st0{fill:#7BBD48;}
	.st1{fill:#FFFFFF;}
</style>
<g>
	<g>
		<rect x="8" y="9.8" class="st0" width="458.9" height="396.6"/>
	</g>
	<g>
		<path class="st1" d="M170.2,259.7v-16.4h14.2v16.4H170.2z M170.2,359.3v-84h14.2v84H170.2z"/>
		<path class="st1" d="M205.8,359.3V243.3H220v115.9H205.8z"/>
		<path class="st1" d="M241.7,359.3V243.3H256v115.9H241.7z"/>
		<path class="st1" d="M333.1,359.3v-12.3c-6.5,9.5-15.4,14.2-26.7,14.2c-5,0-9.6-1-13.9-2.8c-4.3-1.9-7.5-4.3-9.6-7.2
			c-2.1-2.9-3.6-6.4-4.4-10.6c-0.6-2.8-0.9-7.2-0.9-13.3v-52H292v46.6c0,7.4,0.3,12.4,0.9,15c0.9,3.7,2.8,6.7,5.7,8.8
			c2.9,2.1,6.5,3.2,10.8,3.2c4.3,0,8.3-1.1,12-3.3c3.7-2.2,6.4-5.2,7.9-8.9c1.6-3.8,2.3-9.2,2.3-16.4v-45h14.2v84H333.1z"/>
		<path class="st1" d="M362.4,334.2l14.1-2.2c0.8,5.6,3,10,6.6,13c3.6,3,8.7,4.5,15.1,4.5c6.5,0,11.4-1.3,14.6-4
			c3.2-2.7,4.7-5.8,4.7-9.4c0-3.2-1.4-5.7-4.2-7.6c-2-1.3-6.8-2.9-14.5-4.8c-10.4-2.6-17.7-4.9-21.7-6.8c-4-1.9-7.1-4.6-9.2-8
			c-2.1-3.4-3.1-7.2-3.1-11.3c0-3.7,0.9-7.2,2.6-10.4c1.7-3.2,4-5.8,7-7.9c2.2-1.6,5.2-3,9.1-4.2c3.8-1.1,7.9-1.7,12.3-1.7
			c6.6,0,12.4,0.9,17.4,2.8c5,1.9,8.7,4.5,11,7.7c2.4,3.2,4,7.6,4.9,13l-13.9,1.9c-0.6-4.3-2.5-7.7-5.5-10.1
			c-3-2.4-7.3-3.6-12.9-3.6c-6.5,0-11.2,1.1-14,3.2c-2.8,2.2-4.2,4.7-4.2,7.6c0,1.8,0.6,3.5,1.7,5c1.2,1.5,3,2.8,5.5,3.8
			c1.4,0.5,5.6,1.7,12.6,3.6c10.1,2.7,17.1,4.9,21.1,6.6c4,1.7,7.1,4.2,9.4,7.5s3.4,7.3,3.4,12.2c0,4.7-1.4,9.2-4.2,13.4
			c-2.8,4.2-6.8,7.4-12,9.7c-5.2,2.3-11.1,3.4-17.7,3.4c-10.9,0-19.2-2.3-24.9-6.8C367.7,349.8,364,343.1,362.4,334.2z"/>
	</g>
	<g>
		<path class="st1" d="M250.6,455.6v-4.3h3.7v4.3H250.6z M250.6,481.7v-22h3.7v22H250.6z"/>
		<path class="st1" d="M259.9,481.7v-30.4h3.7v30.4H259.9z"/>
		<path class="st1" d="M269.3,481.7v-30.4h3.7v30.4H269.3z"/>
		<path class="st1" d="M293.2,481.7v-3.2c-1.7,2.5-4,3.7-7,3.7c-1.3,0-2.5-0.2-3.6-0.7c-1.1-0.5-2-1.1-2.5-1.9
			c-0.5-0.8-0.9-1.7-1.2-2.8c-0.2-0.7-0.2-1.9-0.2-3.5v-13.6h3.7v12.2c0,1.9,0.1,3.3,0.2,3.9c0.2,1,0.7,1.8,1.5,2.3
			c0.8,0.6,1.7,0.8,2.8,0.8c1.1,0,2.2-0.3,3.1-0.9c1-0.6,1.7-1.4,2.1-2.3c0.4-1,0.6-2.4,0.6-4.3v-11.8h3.7v22H293.2z"/>
		<path class="st1" d="M302.4,481.7v-22h3.3v3.1c0.7-1.1,1.6-1.9,2.8-2.6c1.1-0.7,2.4-1,3.9-1c1.6,0,3,0.3,4,1
			c1,0.7,1.8,1.6,2.2,2.8c1.7-2.6,4-3.9,6.8-3.9c2.2,0,3.9,0.6,5,1.8c1.2,1.2,1.8,3.1,1.8,5.6v15.1h-3.7v-13.9
			c0-1.5-0.1-2.6-0.4-3.2c-0.2-0.7-0.7-1.2-1.3-1.6c-0.6-0.4-1.4-0.6-2.2-0.6c-1.5,0-2.8,0.5-3.9,1.5c-1,1-1.5,2.7-1.5,4.9v12.8
			h-3.7v-14.3c0-1.7-0.3-2.9-0.9-3.7c-0.6-0.8-1.6-1.2-3-1.2c-1.1,0-2,0.3-2.9,0.8c-0.9,0.5-1.5,1.4-1.9,2.4
			c-0.4,1.1-0.6,2.6-0.6,4.6v11.4H302.4z"/>
		<path class="st1" d="M337.8,455.6v-4.3h3.7v4.3H337.8z M337.8,481.7v-22h3.7v22H337.8z"/>
		<path class="st1" d="M347.2,481.7v-22h3.3v3.1c1.6-2.4,3.9-3.6,7-3.6c1.3,0,2.5,0.2,3.7,0.7c1.1,0.5,1.9,1.1,2.5,1.9
			c0.5,0.8,0.9,1.7,1.2,2.8c0.1,0.7,0.2,1.9,0.2,3.6v13.5h-3.7v-13.4c0-1.5-0.1-2.7-0.4-3.4c-0.3-0.8-0.8-1.4-1.5-1.8
			c-0.7-0.4-1.6-0.7-2.6-0.7c-1.6,0-3,0.5-4.1,1.5c-1.2,1-1.7,2.9-1.7,5.7v12H347.2z"/>
		<path class="st1" d="M385.1,478.9c-1.4,1.2-2.7,2-4,2.5c-1.3,0.5-2.6,0.7-4.1,0.7c-2.4,0-4.3-0.6-5.6-1.8
			c-1.3-1.2-1.9-2.7-1.9-4.5c0-1.1,0.2-2.1,0.7-3c0.5-0.9,1.1-1.6,1.9-2.1c0.8-0.5,1.7-0.9,2.7-1.2c0.7-0.2,1.8-0.4,3.3-0.6
			c3-0.4,5.2-0.8,6.6-1.3c0-0.5,0-0.8,0-1c0-1.5-0.4-2.6-1.1-3.2c-1-0.8-2.4-1.3-4.2-1.3c-1.8,0-3.1,0.3-3.9,0.9
			c-0.8,0.6-1.4,1.7-1.9,3.3l-3.6-0.5c0.3-1.6,0.9-2.8,1.6-3.8c0.8-1,1.9-1.7,3.3-2.2c1.4-0.5,3.1-0.8,5-0.8c1.9,0,3.4,0.2,4.6,0.7
			c1.2,0.4,2,1,2.6,1.7c0.5,0.7,0.9,1.5,1.2,2.5c0.1,0.6,0.2,1.8,0.2,3.4v5c0,3.5,0.1,5.7,0.2,6.6c0.2,0.9,0.5,1.8,0.9,2.6h-3.9
			C385.5,480.9,385.2,480,385.1,478.9z M384.8,470.6c-1.4,0.6-3.4,1-6.1,1.4c-1.5,0.2-2.6,0.5-3.2,0.7c-0.6,0.3-1.1,0.7-1.5,1.2
			c-0.3,0.5-0.5,1.1-0.5,1.8c0,1,0.4,1.8,1.1,2.5c0.8,0.7,1.9,1,3.3,1c1.4,0,2.7-0.3,3.8-0.9c1.1-0.6,1.9-1.5,2.5-2.6
			c0.4-0.8,0.6-2.1,0.6-3.7V470.6z"/>
		<path class="st1" d="M402.5,478.3l0.5,3.3c-1,0.2-2,0.3-2.8,0.3c-1.4,0-2.4-0.2-3.2-0.6c-0.7-0.4-1.3-1-1.6-1.7
			c-0.3-0.7-0.5-2.2-0.5-4.4v-12.7h-2.7v-2.9h2.7v-5.4l3.7-2.2v7.7h3.7v2.9h-3.7v12.9c0,1.1,0.1,1.7,0.2,2.1
			c0.1,0.3,0.3,0.5,0.6,0.7c0.3,0.2,0.7,0.3,1.3,0.3C401.3,478.5,401.8,478.4,402.5,478.3z"/>
		<path class="st1" d="M406.2,455.6v-4.3h3.7v4.3H406.2z M406.2,481.7v-22h3.7v22H406.2z"/>
		<path class="st1" d="M414.2,470.7c0-4.1,1.1-7.1,3.4-9c1.9-1.6,4.2-2.4,6.9-2.4c3,0,5.5,1,7.4,3c1.9,2,2.9,4.7,2.9,8.2
			c0,2.8-0.4,5.1-1.3,6.7c-0.9,1.6-2.1,2.9-3.7,3.8c-1.6,0.9-3.4,1.3-5.3,1.3c-3.1,0-5.6-1-7.5-3
			C415.1,477.2,414.2,474.4,414.2,470.7z M418,470.7c0,2.8,0.6,4.9,1.8,6.3c1.2,1.4,2.8,2.1,4.6,2.1c1.9,0,3.4-0.7,4.6-2.1
			c1.2-1.4,1.8-3.6,1.8-6.4c0-2.7-0.6-4.8-1.9-6.2c-1.2-1.4-2.8-2.1-4.6-2.1c-1.9,0-3.4,0.7-4.6,2.1
			C418.6,465.7,418,467.8,418,470.7z"/>
		<path class="st1" d="M439.1,481.7v-22h3.3v3.1c1.6-2.4,3.9-3.6,7-3.6c1.3,0,2.5,0.2,3.7,0.7c1.1,0.5,1.9,1.1,2.5,1.9
			c0.5,0.8,0.9,1.7,1.2,2.8c0.1,0.7,0.2,1.9,0.2,3.6v13.5h-3.7v-13.4c0-1.5-0.1-2.7-0.4-3.4c-0.3-0.8-0.8-1.4-1.5-1.8
			c-0.7-0.4-1.6-0.7-2.6-0.7c-1.6,0-3,0.5-4.1,1.5c-1.2,1-1.7,2.9-1.7,5.7v12H439.1z"/>
	</g>
	<g>
		<rect x="234.8" y="415.9" class="st1" width="5.3" height="85.8"/>
	</g>
</g>
</svg>
