<?xml version="1.0" encoding="UTF-8"?>
<svg id="Layer_2" data-name="Layer 2" xmlns="http://www.w3.org/2000/svg" viewBox="0 0 40.02 18">
  <defs>
    <style>
      .cls-1 {
        fill: #231f20;
        stroke-width: 0px;
      }
    </style>
  </defs>
  <g id="Layer_1-2" data-name="Layer 1">
    <g>
      <path class="cls-1" d="M0,0h2.17v2.5H0V0ZM0,4.88h2.17v12.83H0V4.88Z"/>
      <rect class="cls-1" x="5.44" width="2.17" height="17.71"/>
      <rect class="cls-1" x="10.93" width="2.17" height="17.71"/>
      <path class="cls-1" d="M24.89,17.71v-1.88c-1,1.45-2.36,2.18-4.07,2.18-.76,0-1.46-.15-2.12-.43-.66-.29-1.14-.65-1.46-1.09-.32-.44-.54-.98-.67-1.61-.09-.43-.13-1.1-.13-2.03v-7.95h2.17v7.12c0,1.14.04,1.9.13,2.29.14.57.43,1.02.87,1.35.44.33.99.49,1.64.49s1.27-.17,1.84-.5c.57-.33.98-.79,1.21-1.36.24-.58.36-1.41.36-2.51v-6.87h2.17v12.83h-1.94Z"/>
      <path class="cls-1" d="M29.37,13.88l2.15-.34c.12.86.46,1.52,1.01,1.98.55.46,1.32.69,2.31.69s1.74-.2,2.22-.61c.48-.41.72-.88.72-1.43,0-.49-.21-.88-.64-1.16-.3-.19-1.04-.44-2.22-.74-1.6-.4-2.7-.75-3.32-1.05-.62-.29-1.08-.7-1.4-1.22-.32-.52-.48-1.09-.48-1.72,0-.57.13-1.1.39-1.59.26-.49.62-.89,1.07-1.21.34-.25.8-.46,1.38-.64.58-.17,1.21-.26,1.88-.26,1.01,0,1.89.14,2.65.43.76.29,1.32.68,1.69,1.18.36.49.61,1.16.75,1.99l-2.13.29c-.1-.66-.38-1.18-.84-1.55-.46-.37-1.12-.56-1.96-.56-1,0-1.71.17-2.14.5-.43.33-.64.72-.64,1.16,0,.28.09.54.27.76.18.23.46.43.83.58.22.08.86.26,1.92.55,1.54.41,2.61.75,3.22,1.01.61.26,1.09.64,1.43,1.14.35.5.52,1.12.52,1.86s-.21,1.41-.63,2.05c-.42.64-1.03,1.14-1.83,1.49-.8.35-1.7.53-2.71.53-1.67,0-2.94-.35-3.81-1.04-.87-.69-1.43-1.72-1.67-3.08"/>
    </g>
  </g>
</svg>