<?xml version="1.0" encoding="UTF-8"?>
<svg id="Layer_2" data-name="Layer 2" xmlns="http://www.w3.org/2000/svg" viewBox="0 0 65.2 69.87">
  <defs>
    <style>
      .cls-1 {
        fill: #fff;
        stroke-width: 0px;
      }
    </style>
  </defs>
  <g id="Layer_1-2" data-name="Layer 1">
    <g>
      <path class="cls-1" d="M0,56.34h65.2V0H0v56.34ZM25.06,49.65h-2.02v-11.93h2.02v11.93ZM25.06,35.5h-2.02v-2.33h2.02v2.33ZM30.12,49.65h-2.02v-16.47h2.02v16.47ZM35.23,49.65h-2.02v-16.47h2.02v16.47ZM47.99,49.65h-1.81v-1.75c-.93,1.35-2.19,2.02-3.79,2.02-.7,0-1.36-.14-1.97-.4-.61-.27-1.06-.61-1.36-1.02-.3-.41-.51-.91-.62-1.5-.08-.4-.12-1.03-.12-1.89v-7.39h2.02v6.62c0,1.06.04,1.77.12,2.13.13.53.4.95.81,1.25.41.3.92.46,1.53.46s1.18-.15,1.71-.47c.53-.31.91-.73,1.13-1.27.22-.54.33-1.31.33-2.33v-6.39h2.02v11.93ZM59.67,48.04c-.39.6-.96,1.06-1.7,1.38-.74.33-1.58.49-2.52.49-1.55,0-2.73-.32-3.54-.97-.81-.64-1.33-1.6-1.56-2.87l2-.31c.11.8.42,1.42.94,1.84.51.43,1.23.64,2.15.64s1.62-.19,2.07-.57c.45-.38.67-.82.67-1.33,0-.46-.2-.82-.6-1.08-.28-.18-.97-.41-2.07-.69-1.48-.37-2.51-.7-3.08-.97-.57-.27-1.01-.65-1.3-1.14-.3-.48-.44-1.02-.44-1.6,0-.53.12-1.02.37-1.48.24-.45.57-.83.99-1.13.31-.23.74-.43,1.29-.59.54-.16,1.12-.24,1.75-.24.94,0,1.76.13,2.47.4.71.27,1.23.64,1.57,1.1.34.46.57,1.08.7,1.85l-1.98.27c-.09-.62-.35-1.09-.78-1.44-.43-.34-1.04-.52-1.83-.52-.93,0-1.59.15-1.99.46-.4.31-.59.67-.59,1.08,0,.26.08.5.25.71.16.22.42.4.78.54.2.07.8.25,1.78.52,1.43.38,2.43.69,3,.94.56.24,1.01.6,1.33,1.06.32.46.48,1.04.48,1.73s-.2,1.31-.59,1.9"/>
      <path class="cls-1" d="M34.46,62.72h.53v.61h-.53v-.61ZM34.46,63.91h.53v3.12h-.53v-3.12Z"/>
      <rect class="cls-1" x="35.79" y="62.72" width=".53" height="4.31"/>
      <rect class="cls-1" x="37.13" y="62.72" width=".53" height="4.31"/>
      <path class="cls-1" d="M40.52,67.03v-.46c-.24.35-.57.53-.99.53-.18,0-.36-.04-.52-.11-.16-.07-.28-.16-.35-.27-.08-.11-.13-.24-.16-.39-.02-.1-.03-.27-.03-.5v-1.94h.53v1.73c0,.28.01.46.03.56.03.14.1.25.21.33.11.08.24.12.4.12s.31-.04.45-.12c.14-.08.24-.19.3-.33.06-.14.09-.34.09-.61v-1.67h.53v3.12h-.47Z"/>
      <path class="cls-1" d="M41.83,67.03v-3.12h.47v.44c.1-.15.23-.28.39-.37.16-.09.35-.14.56-.14.23,0,.42.05.57.14.15.1.25.23.31.4.25-.36.57-.55.97-.55.31,0,.55.09.71.26.17.17.25.44.25.79v2.14h-.53v-1.97c0-.21-.02-.36-.05-.46-.03-.09-.1-.17-.19-.22-.09-.06-.2-.09-.32-.09-.22,0-.4.07-.55.22-.15.15-.22.38-.22.7v1.81h-.53v-2.03c0-.24-.04-.41-.13-.53-.09-.12-.23-.18-.42-.18-.15,0-.29.04-.41.12-.13.08-.22.19-.28.35-.06.15-.08.37-.08.65v1.62h-.53Z"/>
      <path class="cls-1" d="M46.85,62.72h.53v.61h-.53v-.61ZM46.85,63.91h.53v3.12h-.53v-3.12Z"/>
      <path class="cls-1" d="M48.19,67.03v-3.12h.48v.45c.23-.34.56-.51.99-.51.19,0,.36.03.52.1.16.07.28.16.35.27.08.11.13.24.16.39.02.1.03.27.03.51v1.92h-.53v-1.9c0-.22-.02-.38-.06-.48-.04-.11-.12-.19-.22-.26s-.23-.1-.37-.1c-.23,0-.42.07-.58.21-.16.14-.25.41-.25.82v1.71h-.53Z"/>
      <path class="cls-1" d="M53.58,66.65c-.19.17-.38.28-.57.35-.18.07-.38.1-.58.1-.34,0-.61-.08-.79-.25-.18-.17-.28-.38-.28-.64,0-.15.04-.29.11-.42.07-.13.16-.23.27-.3.11-.08.24-.14.38-.17.1-.03.26-.05.47-.08.43-.05.74-.11.94-.18,0-.07,0-.12,0-.14,0-.22-.05-.37-.15-.46-.14-.12-.34-.18-.6-.18-.25,0-.43.04-.55.13-.12.09-.21.24-.26.46l-.52-.07c.05-.22.12-.4.23-.54.11-.14.26-.24.47-.32.2-.07.44-.11.71-.11s.48.03.65.09c.17.06.29.14.37.24.08.1.13.21.16.36.02.09.03.25.03.49v.71c0,.49.01.8.03.93.02.13.07.26.13.38h-.55c-.05-.11-.09-.24-.11-.39M53.53,65.47c-.19.08-.48.15-.87.2-.22.03-.37.07-.46.11-.09.04-.16.1-.21.17-.05.08-.08.16-.08.25,0,.14.05.26.16.35s.26.14.47.14.38-.04.54-.13c.16-.09.28-.21.35-.37.06-.12.09-.3.09-.53v-.2Z"/>
      <path class="cls-1" d="M56.05,66.56l.08.47c-.15.03-.28.05-.4.05-.19,0-.34-.03-.45-.09-.11-.06-.18-.14-.22-.24-.04-.1-.07-.31-.07-.62v-1.8h-.39v-.41h.39v-.77l.53-.32v1.09h.53v.41h-.53v1.83c0,.15,0,.25.03.29.02.04.05.08.09.1.04.03.1.04.18.04.06,0,.14,0,.23-.02"/>
      <path class="cls-1" d="M56.57,62.72h.53v.61h-.53v-.61ZM56.57,63.91h.53v3.12h-.53v-3.12Z"/>
      <path class="cls-1" d="M57.71,65.47c0-.58.16-1.01.48-1.29.27-.23.6-.35.98-.35.43,0,.78.14,1.05.42.27.28.41.67.41,1.17,0,.4-.06.72-.18.95-.12.23-.3.41-.53.54-.23.13-.48.19-.76.19-.44,0-.79-.14-1.06-.42-.27-.28-.4-.68-.4-1.21M58.25,65.47c0,.4.09.7.26.9.17.2.39.3.66.3s.48-.1.66-.3c.18-.2.26-.51.26-.92,0-.39-.09-.68-.26-.88-.17-.2-.39-.3-.65-.3s-.48.1-.66.3c-.17.2-.26.5-.26.9"/>
      <path class="cls-1" d="M61.25,67.03v-3.12h.48v.45c.23-.34.56-.51.99-.51.19,0,.36.03.52.1.16.07.28.16.35.27.08.11.13.24.16.39.02.1.03.27.03.51v1.92h-.53v-1.9c0-.22-.02-.38-.06-.48-.04-.11-.12-.19-.22-.26s-.23-.1-.37-.1c-.23,0-.42.07-.58.21-.16.14-.25.41-.25.82v1.71h-.53Z"/>
      <rect class="cls-1" x="32.23" y="57.69" width=".75" height="12.18"/>
    </g>
  </g>
</svg>