<svg id="Layer_1" data-name="Layer 1" xmlns="http://www.w3.org/2000/svg" viewBox="0 0 72.85 55.67">
  <g>
    <path d="M950.69,552.51c6.92-8,12.8-14.77,20.14-20,4.21-3,8.6-5.63,14-5.77,2.13-.06,4.68-.31,6,1.26,4.27,5.14,12.18,7.41,12.65,15.54.13,2.25,2.15,2.44,3.5,3.3,6.08,3.86,9.12,9.48,9.81,16.46.27,2.67,0,5.13-3.73,4.67-2.64-.33-3,1.56-3.66,3.38-2.43,6.45-7.11,10-13.09,10-6.16,0-11-3.55-13.44-10.29-.62-1.75-1-3.36-3.28-3.07-3.69.48-4-1.67-3.87-4.46a19.11,19.11,0,0,1,10-16.79c4.78-2.77,2.87-9,7.06-12.18.69-.53-2.87-3.9-5.68-4.36-4.22-.69-7.92.82-11.36,3-9.7,6.06-16.94,14.63-23.87,23.44-2.55,3.24-.86,7.34-1.19,11-.18,2.09.23,4.38-3,4.36-2.87,0-2.7-2-2.69-4,0-8.52,0-17,0-25.55,0-2.12.19-3.82,2.93-3.74s2.77,2,2.74,4C950.66,545.49,950.69,548.26,950.69,552.51Z" transform="translate(-944.53 -526.18)" fill="none" stroke="#72be44" stroke-miterlimit="10"/>
    <path d="M996.32,564.5c-4.38,0-8.78-.23-13.14.08-3.46.24-4.37-.91-3.75-4.17,1.44-7.67,9-13.36,17.62-13.1,8,.23,15.14,6.66,16.12,14.23.3,2.32-.24,3.09-2.55,3.05-4.77-.09-9.53,0-14.3,0Z" transform="translate(-944.53 -526.18)" fill="none" stroke="#72be44" stroke-miterlimit="10"/>
    <path d="M996.05,567.94a48.54,48.54,0,0,1,5.12,0c1.76.19,4.31-1.11,5.1,1,.74,1.93-.9,3.91-2.27,5.48a10.42,10.42,0,0,1-16.86-1.76c-1.67-3-1.71-5,2.66-4.75C991.87,568.05,994,567.94,996.05,567.94Z" transform="translate(-944.53 -526.18)" fill="none" stroke="#72be44" stroke-miterlimit="10"/>
    <path d="M996.52,544c-1.62-.62-4.13,1-4.15-1.83a3.81,3.81,0,0,1,7.61-.19C1000.13,545,997.49,543.12,996.52,544Z" transform="translate(-944.53 -526.18)" fill="none" stroke="#72be44" stroke-miterlimit="10"/>
  </g>
</svg>
